<svg width="32" height="32" viewBox="0 0 32 32" fill="none" xmlns="http://www.w3.org/2000/svg">
<rect x="1" y="1" width="30" height="30" rx="7" fill="#FFD4C9" stroke="#FF3536" stroke-width="2"/>
<path d="M23.875 13.6094C23.875 18.5312 16.5773 22.5152 16.2665 22.6797C16.1846 22.7238 16.093 22.7468 16 22.7468C15.907 22.7468 15.8154 22.7238 15.7335 22.6797C15.4227 22.5152 8.125 18.5312 8.125 13.6094C8.1263 12.4536 8.58601 11.3455 9.40327 10.5283C10.2205 9.71101 11.3286 9.2513 12.4844 9.25C13.9363 9.25 15.2076 9.87437 16 10.9298C16.7924 9.87437 18.0637 9.25 19.5156 9.25C20.6714 9.2513 21.7795 9.71101 22.5967 10.5283C23.414 11.3455 23.8737 12.4536 23.875 13.6094Z" fill="#FF3536"/>
</svg>
