<svg width="33" height="32" viewBox="0 0 33 32" fill="none" xmlns="http://www.w3.org/2000/svg">
<rect x="1.5" y="1" width="30" height="30" rx="7" fill="#FFD4C9" stroke="#FF3536" stroke-width="2"/>
<path d="M24.375 13.6094C24.375 18.5312 17.0773 22.5152 16.7665 22.6797C16.6846 22.7238 16.593 22.7468 16.5 22.7468C16.407 22.7468 16.3154 22.7238 16.2335 22.6797C15.9227 22.5152 8.625 18.5312 8.625 13.6094C8.6263 12.4536 9.08601 11.3455 9.90327 10.5283C10.7205 9.71101 11.8286 9.2513 12.9844 9.25C14.4363 9.25 15.7076 9.87437 16.5 10.9298C17.2924 9.87437 18.5637 9.25 20.0156 9.25C21.1714 9.2513 22.2795 9.71101 23.0967 10.5283C23.914 11.3455 24.3737 12.4536 24.375 13.6094Z" fill="#FF3536"/>
</svg>
